<svg id="Layer_1" data-name="Layer 1" xmlns="http://www.w3.org/2000/svg" viewBox="0 0 167 40.01"><defs><style>.cls-1{fill:#e21b37;}.cls-2{fill:#0b457c;}.cls-3{fill:#037c85;}.cls-4{fill:#fff;}.cls-5{fill:#010101;}.cls-6{fill:#eb5d1c;}.cls-7{fill:#e41522;}.cls-8{fill:#f59e1f;}.cls-9{fill:#084793;}.cls-10{fill:#f2af15;}</style></defs><path class="cls-1" d="M132.34,6.33H142.6a2,2,0,0,1,2,2.6l-4.78,20.51a3.49,3.49,0,0,1-3.2,2.6H126.35a2,2,0,0,1-2-2.6l4.78-20.51a3.46,3.46,0,0,1,3.2-2.6"/><path class="cls-2" d="M141.75,6.33h11.79c1.44,0,.79,1.16.45,2.6l-4.77,20.51c-.34,1.43-.23,2.6-1.67,2.6h-11.8a2,2,0,0,1-2-2.6l4.77-20.51a3.48,3.48,0,0,1,3.21-2.6"/><path class="cls-3" d="M153.08,6.33h10.26a2,2,0,0,1,2,2.6l-4.77,20.51a3.49,3.49,0,0,1-3.21,2.6H147.09a2,2,0,0,1-2-2.6l4.77-20.51a3.48,3.48,0,0,1,3.21-2.6"/><path class="cls-4" d="M135,12.9a12.74,12.74,0,0,1-1.47,0c0,.18-.75,3.46-.75,3.47a2.39,2.39,0,0,1-.64,1.44,1.15,1.15,0,0,1-.76.26.7.7,0,0,1-.79-.67v-.15s.15-.89.15-.9.74-3,.88-3.39c0,0,0,0,0,0a13.08,13.08,0,0,1-1.73,0s0,.21,0,.21l-.76,3.38-.07.28-.12.94a1.39,1.39,0,0,0,.16.7c.35.6,1.34.69,1.9.69a3.71,3.71,0,0,0,1.86-.43A2.78,2.78,0,0,0,134,16.79l.08-.33s.77-3.11.9-3.52C135,12.92,135,12.91,135,12.9Zm2.62,2.51a2,2,0,0,0-.83.19l-.33.19.1-.36-.05-.06c-.65.13-.79.15-1.39.23l0,0a17.44,17.44,0,0,1-.39,2.13c-.09.42-.2.84-.3,1.25l0,.05c.61,0,.8,0,1.33,0l0-.05c.07-.34.08-.42.23-1.12.07-.34.21-1.06.29-1.32a.86.86,0,0,1,.38-.13c.3,0,.27.26.25.37s-.12.74-.23,1.23l-.07.31c-.05.23-.11.46-.16.69l0,0c.6,0,.79,0,1.3,0l.06-.05c.09-.54.12-.68.29-1.47l.08-.36c.16-.71.24-1.06.12-1.36A.71.71,0,0,0,137.64,15.41Zm2.92.74-.72.13-.71.1,0,0,0,0c0,.23-.05.43-.1.67s-.09.51-.18.91a3.14,3.14,0,0,1-.15.51c0,.11-.08.21-.16.51l0,0,0,0,.67,0c.19,0,.4,0,.71,0l0,0,0,0c0-.26.06-.34.08-.47s.08-.33.19-.85c.06-.25.12-.49.17-.74s.13-.49.18-.74v-.05Zm0-1a1.18,1.18,0,0,0-1.15.12c-.34.23-.38.56-.09.74a1.19,1.19,0,0,0,1.14-.13C140.81,15.65,140.86,15.32,140.57,15.15Zm1.76,4a2.18,2.18,0,0,0,1.65-.65,2.81,2.81,0,0,0,.56-1.21,1.58,1.58,0,0,0-.13-1.39,1.54,1.54,0,0,0-1.24-.45,2.25,2.25,0,0,0-1.55.54,2.48,2.48,0,0,0-.69,1.34c-.11.48-.24,1.36.56,1.68A2.31,2.31,0,0,0,142.33,19.13Zm-.05-1.79c.14-.6.3-1.1.71-1.1s.34.37.2,1a2.52,2.52,0,0,1-.3.84.48.48,0,0,1-.39.25s-.29,0-.3-.38A3.2,3.2,0,0,1,142.28,17.34ZM146,19.05l.05-.05c.07-.34.08-.42.22-1.12.07-.34.22-1.06.29-1.32a.94.94,0,0,1,.39-.13c.3,0,.26.26.25.37s-.12.74-.23,1.23l-.07.31c0,.23-.11.46-.16.69l0,0c.6,0,.78,0,1.3,0l.06-.05c.09-.54.12-.68.29-1.47l.08-.36c.16-.71.24-1.06.12-1.36a.71.71,0,0,0-.72-.4,2,2,0,0,0-.83.19l-.33.19.1-.36-.05-.06c-.65.13-.8.15-1.39.23l-.05,0a17.44,17.44,0,0,1-.39,2.13c-.09.42-.2.84-.3,1.25l0,.05C145.3,19,145.48,19,146,19.05Zm4.45,0c0-.18.26-1.28.26-1.28s.2-.81.21-.84a.44.44,0,0,1,.12-.11h.09a4.1,4.1,0,0,0,2.53-.55,2.73,2.73,0,0,0,1-1.6,2.45,2.45,0,0,0,.07-.56,1.17,1.17,0,0,0-.21-.71c-.38-.53-1.13-.54-2-.55h-.43a17,17,0,0,1-1.75,0c0,.08,0,.23,0,.23l-.4,1.85s-1,3.94-1,4.13C149.89,19.06,150.29,19.06,150.46,19.07Zm.74-3.29.42-1.84v-.16h.17l.9.08a.74.74,0,0,1,.39.93,1.34,1.34,0,0,1-.7.92,2.13,2.13,0,0,1-1,.16h-.23Zm2.64,1.6c-.11.48-.24,1.35.56,1.66a1.6,1.6,0,0,0,.72.13,1.14,1.14,0,0,0,.68-.31l-.06.22,0,0c.58,0,.75,0,1.38,0l.05,0c.1-.53.18-1,.42-2.08.11-.49.23-1,.35-1.46l0-.06c-.65.12-.82.15-1.44.24l0,0a.77.77,0,0,0,0,.15.88.88,0,0,0-.45-.37,1.71,1.71,0,0,0-1.48.54A2.52,2.52,0,0,0,153.84,17.38Zm1.36,0c.13-.59.29-1.09.7-1.09.26,0,.4.24.37.65,0,.1-.05.2-.07.33s-.09.34-.13.52a2.26,2.26,0,0,1-.15.31.76.76,0,0,1-.51.24s-.29,0-.3-.38A2.57,2.57,0,0,1,155.2,17.41Zm7.06-1.95,0-.06c-.64.13-.76.15-1.34.23l-.05,0v0h0c-.44,1-.43.79-.78,1.58a.38.38,0,0,0,0-.1L160,15.46l-.06-.06c-.67.13-.68.15-1.3.23l-.05,0a.17.17,0,0,1,0,.07h0c.07.39.05.31.13.93,0,.3.09.61.12.91.06.5.1.75.17,1.52-.41.69-.51.95-.91,1.55h0l-.28.44a.26.26,0,0,1-.11.1.44.44,0,0,1-.18,0h-.16l-.23.77.8,0a1,1,0,0,0,.92-.52l.5-.86h0l0-.06C159.69,19.86,162.26,15.46,162.26,15.46Zm-8.42,10.15h-.33l1.25-4.14h.41l.13-.43,0,.48c0,.29.21.55.82.51h.7l.24-.8h-.26c-.16,0-.23,0-.22-.12v-.48h-1.3a17.65,17.65,0,0,0-1.92.11,2.26,2.26,0,0,0-.63.31l.12-.43h-1.21l-.25.85-1.27,4.2h-.25l-.24.79h2.42l-.08.27h1.19l.08-.27h.33Zm-1-3.3a4.56,4.56,0,0,0-.55.22l.32-1.06h1l-.23.77A3.54,3.54,0,0,0,152.85,22.31Zm0,1.51-.5.08a4.78,4.78,0,0,0-.57.25l.34-1.1h1Zm-.54,1.8h-1l.28-.93h1Zm2.33-2.57h1.39l-.2.65h-1.41l-.21.71h1.23l-.93,1.32a.4.4,0,0,1-.19.15.49.49,0,0,1-.25.08h-.35l-.23.77h.9a1.08,1.08,0,0,0,.94-.49l.64-.88.14.9a.44.44,0,0,0,.23.3.88.88,0,0,0,.31.13h.75l.27-.87h-.17a.83.83,0,0,1-.31,0,1.18,1.18,0,0,1,0-.19l-.14-.89h-.57l.25-.3h1.41l.21-.71H157l.2-.65h1.3l.25-.8H154.9ZM142.89,25.8l.32-1.08h1.34l.24-.81h-1.34l.21-.67H145l.24-.77h-3.27l-.24.77h.74l-.2.67h-.74l-.25.82H142l-.44,1.43a.35.35,0,0,0,.08.35.41.41,0,0,0,.24.18,1.39,1.39,0,0,0,.35,0h1.5l.27-.89-.67.09C143.2,25.93,142.85,25.92,142.89,25.8Zm.15-5.18-.34.61a.61.61,0,0,1-.2.25.53.53,0,0,1-.3.05H142l-.23.78h.59a1.39,1.39,0,0,0,.6-.15c.11-.06.14,0,.22-.11l.2-.17h1.84l.24-.82h-1.34l.23-.44Zm2.71,5.19s0-.12,0-.29l.5-1.65h1.78l.57,0a1.19,1.19,0,0,0,.43-.14.8.8,0,0,0,.31-.29,2.52,2.52,0,0,0,.31-.7l.63-2.1h-1.85a6.48,6.48,0,0,0-.82.18,3.08,3.08,0,0,0-.62.39l.17-.57h-1.14l-1.6,5.3a3.41,3.41,0,0,0-.11.45c0,.1.12.19.21.26s.23.06.37.08h1.5l.27-.91-.78.08A.19.19,0,0,1,145.75,25.81Zm.86-3.06h1.87l-.12.37a1.32,1.32,0,0,0-.24,0h-1.63Zm.37-1.26h1.89l-.13.45s-.89,0-1,0a2.16,2.16,0,0,0-1,.44Zm1.43,2.88a.19.19,0,0,1-.08.11.32.32,0,0,1-.19,0h-.27l0-.46h-1.11l-.05,2.22c0,.16,0,.26.13.33a2.27,2.27,0,0,0,1,.11h.7l.25-.84-.61,0H148a.18.18,0,0,1-.08-.05s-.07,0-.06-.17v-.57l.63,0a.82.82,0,0,0,.62-.22.61.61,0,0,0,.2-.37l.11-.51h-.87Z"/><path class="cls-5" d="M80.45,32.24V30.5a1,1,0,0,0-1.1-1.1,1.14,1.14,0,0,0-1,.49,1,1,0,0,0-.93-.49,1,1,0,0,0-.81.4v-.34H76v2.78h.61V30.7c0-.49.26-.72.66-.72s.61.26.61.72v1.54h.61V30.7a.64.64,0,0,1,.67-.72c.4,0,.6.26.6.72v1.54Zm9-2.78h-1v-.85h-.6v.85h-.55V30h.55v1.27c0,.64.26,1,1,1a1.75,1.75,0,0,0,.76-.2l-.18-.53a1,1,0,0,1-.52.15c-.29,0-.41-.18-.41-.47V30h1v-.55Zm5.17-.07a.82.82,0,0,0-.73.41v-.35H93.3v2.79h.61V30.67c0-.46.2-.73.58-.73a1.67,1.67,0,0,1,.38.06l.17-.58a1.84,1.84,0,0,0-.4,0Zm-7.81.3a1.93,1.93,0,0,0-1.13-.3c-.7,0-1.16.35-1.16.9s.35.73,1,.82l.29,0c.31.05.49.14.49.29s-.23.34-.64.34a1.6,1.6,0,0,1-.93-.29l-.29.47a2.08,2.08,0,0,0,1.19.34c.81,0,1.28-.37,1.28-.89s-.38-.76-1-.85l-.29,0c-.26,0-.46-.08-.46-.26s.2-.31.52-.31a2,2,0,0,1,.87.23l.26-.49Zm16.19-.3a.84.84,0,0,0-.73.41v-.35h-.61v2.79h.61V30.67c0-.46.2-.73.58-.73a1.67,1.67,0,0,1,.38.06l.18-.57a1.43,1.43,0,0,0-.41,0Zm-7.78,1.46a1.4,1.4,0,0,0,1.48,1.45,1.46,1.46,0,0,0,1-.32l-.29-.49a1.19,1.19,0,0,1-.73.26.83.83,0,0,1-.84-.9.85.85,0,0,1,.84-.9,1.21,1.21,0,0,1,.73.26l.29-.49a1.41,1.41,0,0,0-1-.32,1.39,1.39,0,0,0-1.48,1.45Zm5.63,0V29.46h-.61v.34a1,1,0,0,0-.87-.4,1.45,1.45,0,0,0,0,2.9,1,1,0,0,0,.87-.41v.35h.61V30.85Zm-2.23,0a.84.84,0,1,1,1.68,0,.84.84,0,1,1-1.68,0Zm-7.28-1.46a1.45,1.45,0,0,0,0,2.9,1.78,1.78,0,0,0,1.13-.37l-.29-.44a1.34,1.34,0,0,1-.81.29.77.77,0,0,1-.84-.66h2.06v-.24a1.3,1.3,0,0,0-1.28-1.48Zm0,.53a.66.66,0,0,1,.69.66H90.6a.74.74,0,0,1,.76-.66Zm15.11.93v-2.5h-.61V29.8a1,1,0,0,0-.87-.4,1.45,1.45,0,0,0,0,2.9,1,1,0,0,0,.87-.41v.35h.61V30.85Zm-2.23,0a.84.84,0,1,1,1.68,0,.84.84,0,1,1-1.68,0Zm-20.37,0V29.46h-.61v.34a1,1,0,0,0-.87-.4,1.45,1.45,0,0,0,0,2.9,1,1,0,0,0,.87-.41v.35h.61V30.85Zm-2.26,0a.84.84,0,1,1,1.68,0,.84.84,0,1,1-1.68,0Z"/><rect id="rect19" class="cls-6" x="86.63" y="8.3" width="9.14" height="16.42"/><path class="cls-7" d="M87.24,16.51a10.51,10.51,0,0,1,4-8.21A10.44,10.44,0,1,0,84.77,27a10.33,10.33,0,0,0,6.44-2.24A10.4,10.4,0,0,1,87.24,16.51Z"/><path id="path22" class="cls-8" d="M108.1,16.51a10.43,10.43,0,0,1-16.89,8.21,10.37,10.37,0,0,0,4-8.21,10.49,10.49,0,0,0-4-8.21,10.44,10.44,0,0,1,16.89,8.21Z"/><path class="cls-9" d="M23.61,28.18l3-17.84h4.86l-3,17.84ZM46,10.72A12.56,12.56,0,0,0,41.68,10c-4.8,0-8.19,2.42-8.22,5.89,0,2.57,2.42,4,4.27,4.85s2.53,1.43,2.52,2.22c0,1.19-1.52,1.74-2.91,1.74a10.12,10.12,0,0,1-4.58-.94l-.63-.28-.68,4a15.25,15.25,0,0,0,5.42.95c5.11,0,8.43-2.39,8.47-6.09,0-2-1.28-3.58-4.09-4.85-1.7-.83-2.74-1.38-2.73-2.21s.88-1.54,2.79-1.54a9.09,9.09,0,0,1,3.64.68l.43.21L46,10.72m12.52-.38H54.8a2.42,2.42,0,0,0-2.54,1.48L45,28.17h5.11s.83-2.2,1-2.68h6.23c.15.62.6,2.67.6,2.67H62.5L58.56,10.34Zm-6,11.52,1.94-5c0,.05.4-1,.64-1.7l.33,1.54s.93,4.26,1.13,5.15ZM19.48,10.34,14.72,22.51,14.21,20a13.89,13.89,0,0,0-6.74-7.49l4.36,15.61H17l7.66-17.81H19.48"/><path class="cls-10" d="M10.27,10.34H2.43l-.06.37c6.1,1.48,10.14,5,11.81,9.34l-1.7-8.21a2,2,0,0,0-2.21-1.5"/></svg>